<svg height="512" viewBox="0 0 128 128" width="512" xmlns="http://www.w3.org/2000/svg"><g><g><path d="m6.5 6.5h115v115h-115z" fill="#f5ddcd"/><path d="m6.5 6.5h115v17.692h-115z" fill="#d85134"/><g fill="#f5ddcd"><circle cx="106.005" cy="15.346" r="3"/><circle cx="91.262" cy="15.346" r="3"/><circle cx="76.518" cy="15.346" r="3"/></g><path d="m15.526 33.192h43.308v36.583h-43.308z" fill="#f0f0fb"/><path d="m69.167 33.192h43.308v70.615h-43.308z" fill="#f0f0fb"/><path d="m29.728 46.646h68.545v40.132h-68.545z" fill="#b7452c"/><circle cx="98.272" cy="46.646" fill="#d85134" r="8.5"/></g><g fill="#0f1336"><path d="m121.5 4.75h-115a1.75 1.75 0 0 0 -1.75 1.75v115a1.75 1.75 0 0 0 1.75 1.75h19.5a1.75 1.75 0 0 0 0-3.5h-17.75v-93.808h111.5v93.808h-82.583a1.75 1.75 0 0 0 0 3.5h84.333a1.75 1.75 0 0 0 1.75-1.75v-115a1.75 1.75 0 0 0 -1.75-1.75zm-113.25 17.692v-14.192h111.5v14.192z"/><path d="m106.005 10.6a4.75 4.75 0 1 0 4.75 4.75 4.756 4.756 0 0 0 -4.75-4.75zm0 6a1.25 1.25 0 1 1 1.25-1.25 1.252 1.252 0 0 1 -1.25 1.25z"/><path d="m91.262 10.6a4.75 4.75 0 1 0 4.75 4.75 4.756 4.756 0 0 0 -4.75-4.75zm0 6a1.25 1.25 0 1 1 1.25-1.25 1.251 1.251 0 0 1 -1.25 1.25z"/><path d="m76.518 10.6a4.75 4.75 0 1 0 4.75 4.75 4.756 4.756 0 0 0 -4.75-4.75zm0 6a1.25 1.25 0 1 1 1.25-1.25 1.252 1.252 0 0 1 -1.25 1.25z"/><path d="m112.47 82a1.75 1.75 0 0 0 -1.75 1.75v3.875a1.75 1.75 0 0 0 3.5 0v-3.875a1.749 1.749 0 0 0 -1.75-1.75z"/><path d="m15.5 85.027a1.75 1.75 0 0 0 0 3.5h51.92v15.28a1.751 1.751 0 0 0 1.75 1.75h43.3a1.75 1.75 0 0 0 1.75-1.75v-8.507a1.75 1.75 0 1 0 -3.5 0v6.765h-39.8v-13.535h27.35a1.75 1.75 0 0 0 1.75-1.75v-30.045a10.244 10.244 0 1 0 -11.838-11.835h-17.262v-9.96h39.8v42.56a1.75 1.75 0 0 0 3.5 0v-44.31a1.75 1.75 0 0 0 -1.75-1.75h-43.3a1.751 1.751 0 0 0 -1.75 1.75v11.71h-6.84v-11.71a1.751 1.751 0 0 0 -1.75-1.75h-22.08a1.75 1.75 0 0 0 0 3.5h20.33v9.96h-27.35a1.751 1.751 0 0 0 -1.75 1.75v21.38h-10.7v-33.09h8.72a1.75 1.75 0 1 0 0-3.5h-10.47a1.75 1.75 0 0 0 -1.75 1.75v36.59a1.749 1.749 0 0 0 1.75 1.75h12.45v5.387h-12.48a1.75 1.75 0 0 0 0 3.5h12.48v4.61zm82.772-45.127a6.75 6.75 0 1 1 -6.75 6.75 6.757 6.757 0 0 1 6.75-6.75zm-66.792 8.5h56.7a10.26 10.26 0 0 0 8.336 8.334v28.3h-65.036z"/><path d="m15.5 96.638h43.333a1.75 1.75 0 0 0 0-3.5h-43.333a1.75 1.75 0 0 0 0 3.5z"/><path d="m15.5 104.749h43.333a1.75 1.75 0 0 0 0-3.5h-43.333a1.75 1.75 0 0 0 0 3.5z"/><path d="m94.914 50.005a1.748 1.748 0 0 0 2.474 0l.884-.884.884.884a1.75 1.75 0 0 0 2.475-2.475l-.884-.884.884-.884a1.75 1.75 0 0 0 -2.475-2.475l-.884.884-.884-.884a1.75 1.75 0 0 0 -2.474 2.475l.884.884-.884.884a1.749 1.749 0 0 0 0 2.475z"/><path d="m42.333 60.351h43.334a1.75 1.75 0 0 0 0-3.5h-43.334a1.75 1.75 0 0 0 0 3.5z"/><path d="m42.333 68.462h43.334a1.75 1.75 0 0 0 0-3.5h-43.334a1.75 1.75 0 0 0 0 3.5z"/><path d="m42.333 76.572h43.334a1.75 1.75 0 0 0 0-3.5h-43.334a1.75 1.75 0 0 0 0 3.5z"/></g></g></svg>